<svg width="42" height="42" viewBox="0 0 42 42" fill="none" xmlns="http://www.w3.org/2000/svg">
<path d="M15.1035 20.6463C14.9082 20.451 14.5917 20.451 14.3964 20.6463C14.2011 20.8415 14.2011 21.1581 14.3964 21.3534L18.5631 25.5201C18.7583 25.7153 19.0749 25.7153 19.2702 25.5201L28.6452 16.1451C28.8404 15.9498 28.8404 15.6332 28.6452 15.438C28.4499 15.2427 28.1333 15.2427 27.9381 15.438L18.9166 24.4594L15.1035 20.6463ZM11.3184 4.45387C13.098 4.31186 14.7873 3.61209 16.1461 2.45418C18.9431 0.0706103 23.0569 0.0706102 25.8538 2.45418C27.2126 3.61209 28.902 4.31186 30.6815 4.45387C34.3447 4.74619 37.2536 7.65508 37.5459 11.3183C37.6879 13.0978 38.3877 14.7872 39.5456 16.146C41.9292 18.9429 41.9292 23.0567 39.5456 25.8537C38.3877 27.2125 37.6879 28.9018 37.5459 30.6814C37.2536 34.3446 34.3447 37.2535 30.6815 37.5458C28.902 37.6878 27.2126 38.3876 25.8538 39.5455C23.0569 41.9291 18.9431 41.9291 16.1461 39.5455C14.7873 38.3876 13.098 37.6878 11.3184 37.5458C7.65521 37.2535 4.74632 34.3446 4.45399 30.6814C4.31198 28.9018 3.61221 27.2125 2.45431 25.8537C0.0707323 23.0567 0.0707324 18.9429 2.45431 16.146C3.61221 14.7872 4.31198 13.0978 4.45399 11.3183C4.74632 7.65508 7.65521 4.74619 11.3184 4.45387Z" fill="#F1614B" stroke="white" stroke-linecap="round" stroke-linejoin="round"/>
</svg>
